<svg width="30" height="30" viewBox="0 0 30 30" fill="none" xmlns="http://www.w3.org/2000/svg">
<path d="M14.8066 0.212891L15.9361 9.58103L20.7782 1.48219L17.9996 10.4998L25.7172 5.0706L19.5111 12.1784L28.7697 10.3577L20.2091 14.3267L29.4079 16.4292L19.973 16.5732L27.5213 22.2354L18.8436 18.5294L23.4363 26.7722L17.0161 19.8571L17.8591 29.2553L14.8066 20.3267L11.7542 29.2553L12.5972 19.8571L6.17699 26.7722L10.7697 18.5294L2.09197 22.2354L9.6403 16.5732L0.205427 16.4292L9.40419 14.3267L0.843571 10.3577L10.1022 12.1784L3.89606 5.0706L11.6137 10.4998L8.83508 1.48219L13.6772 9.58103L14.8066 0.212891Z" fill="#FD5056"/>
</svg>
